<svg width="333" height="129" viewBox="0 0 333 129" fill="none" xmlns="http://www.w3.org/2000/svg">
<path d="M0 103.631V38.7308H26.2C30.4703 38.5898 34.7197 39.3851 38.65 41.0608C41.6881 42.3611 44.2782 44.5237 46.1 47.2808C47.7266 49.8707 48.5768 52.8726 48.55 55.9308C48.6434 59.3263 47.5547 62.6489 45.47 65.3308C43.2567 68.0364 40.2363 69.9636 36.85 70.8308C39.1966 71.2959 41.4247 72.2314 43.4 73.5808C45.2955 74.8647 46.8612 76.5778 47.97 78.5808C49.119 80.7322 49.6974 83.1422 49.65 85.5808C49.6382 87.7087 49.2767 89.8201 48.58 91.8308C47.8001 94.0273 46.5355 96.0199 44.88 97.6608C42.8455 99.6123 40.3986 101.082 37.72 101.961C34.049 103.14 30.2044 103.688 26.35 103.581L0 103.631ZM11.8 48.9308V66.1508H25.7C29.2 66.1508 31.8667 65.3775 33.7 63.8308C34.6083 63.0434 35.326 62.06 35.7989 60.9548C36.2718 59.8497 36.4876 58.6515 36.43 57.4508C36.4754 56.2881 36.259 55.13 35.7969 54.0621C35.3347 52.9942 34.6386 52.0437 33.76 51.2808C31.9733 49.7275 29.33 48.9508 25.83 48.9508L11.8 48.9308ZM11.8 93.3308H26C29.7733 93.3308 32.5333 92.5741 34.28 91.0608C35.1146 90.2661 35.7776 89.309 36.2282 88.2483C36.6788 87.1876 36.9073 86.0459 36.8998 84.8935C36.8924 83.7411 36.6489 82.6025 36.1846 81.5477C35.7203 80.493 35.0449 79.5445 34.2 78.7608C32.4 77.2075 29.6667 76.4308 26 76.4308H11.8V93.3308Z" fill="#081A78"/>
<path d="M55.8 103.63V48.8398H67.6V103.63H55.8Z" fill="#081A78"/>
<path d="M146.15 75.2313V103.631H134.34V75.2313C134.34 71.6313 133.477 68.9146 131.75 67.0813C130.873 66.1712 129.814 65.4559 128.643 64.9821C127.471 64.5083 126.213 64.2865 124.95 64.3313C122.702 64.2935 120.501 64.9769 118.67 66.2813C116.705 67.78 115.221 69.8203 114.4 72.1513C113.274 75.2852 112.745 78.6025 112.84 81.9313V103.631H101.1V55.1513H111.39L112.66 63.2613C113.905 60.7307 115.736 58.5333 118 56.8513C120.945 54.7567 124.487 53.6694 128.1 53.7513C131.625 53.6269 135.106 54.5565 138.1 56.4213C140.827 58.267 142.935 60.8908 144.15 63.9513C145.556 67.542 146.236 71.376 146.15 75.2313V75.2313Z" fill="#081A78"/>
<path d="M197.81 103.631H183.41L166.77 79.9412L166.14 79.0413V103.631H154.34V20.5312H166.14V67.9313L180.61 55.1313H196.61L175.11 73.0013L197.81 103.631Z" fill="#081A78"/>
<path d="M205.1 103.631V42.6309H225.3C232.2 42.6309 237.473 44.3209 241.12 47.7009C244.767 51.0809 246.593 55.6709 246.6 61.4709C246.6 67.2042 244.773 71.7442 241.12 75.0909C237.467 78.4375 232.193 80.1042 225.3 80.0909H213V103.591L205.1 103.631ZM213 73.5209H225.3C229.66 73.5209 232.967 72.4375 235.22 70.2709C236.364 69.1216 237.256 67.7462 237.838 66.2326C238.42 64.719 238.679 63.1006 238.6 61.4809C238.681 59.8294 238.423 58.1789 237.841 56.6311C237.26 55.0832 236.368 53.6708 235.22 52.4809C232.973 50.2609 229.667 49.1509 225.3 49.1509H213V73.5209Z" fill="#2A49F4"/>
<path d="M285.64 62.3498C284.112 59.7291 281.78 57.6707 278.99 56.4798C275.904 55.1931 272.583 54.5631 269.24 54.6298C265.781 54.5749 262.333 55.0539 259.02 56.0498C256.279 56.8478 253.84 58.4503 252.02 60.6498C250.226 63.064 249.325 66.0256 249.47 69.0298H258.1C258.025 67.2977 258.547 65.5925 259.58 64.1998C260.618 62.9094 262.007 61.9473 263.58 61.4298C265.389 60.8142 267.289 60.5099 269.2 60.5298C272.867 60.5298 275.617 61.4698 277.45 63.3498C279.29 65.2298 280.2 68.3498 280.2 72.6298V78.9898C278.022 78.2314 275.793 77.6266 273.53 77.1798C271.051 76.6838 268.529 76.4326 266 76.4298C262.794 76.383 259.601 76.8627 256.55 77.8498C253.948 78.6595 251.645 80.2219 249.93 82.3398C248.23 84.6086 247.371 87.3976 247.5 90.2298C247.496 92.8167 248.208 95.3542 249.559 97.5607C250.909 99.7672 252.844 101.556 255.15 102.73C258.173 104.236 261.525 104.962 264.9 104.84C268.145 104.922 271.343 104.053 274.1 102.34C276.629 100.703 278.676 98.4212 280.03 95.7298C280.15 95.4898 280.27 95.2398 280.38 94.9898L281.2 103.63H288V72.8398C288.027 68.5331 287.24 65.0365 285.64 62.3498ZM278.42 92.3498C277.139 94.2267 275.446 95.7863 273.47 96.9098C271.343 98.137 268.925 98.7691 266.47 98.7398C262.77 98.7398 260.08 97.8998 258.4 96.2398C257.586 95.4692 256.941 94.538 256.506 93.5052C256.07 92.4724 255.854 91.3605 255.87 90.2398C255.87 87.0798 256.97 84.8365 259.17 83.5098C261.636 82.1144 264.438 81.4226 267.27 81.5098C269.597 81.5305 271.916 81.7648 274.2 82.2098C276.266 82.5805 278.296 83.1258 280.27 83.8398V86.8398C280.211 88.8157 279.567 90.7296 278.42 92.3398V92.3498Z" fill="#2A49F4"/>
<path d="M332.6 55.1504L314.39 113.25C312.89 118.05 310.89 121.754 308.39 124.36C307.151 125.644 305.656 126.653 304.002 127.323C302.349 127.993 300.573 128.309 298.79 128.25C296.756 128.263 294.733 127.963 292.79 127.36C290.764 126.689 288.81 125.815 286.96 124.75V117.55C288.499 118.817 290.231 119.83 292.09 120.55C293.747 121.152 295.497 121.457 297.26 121.45C299.111 121.493 300.905 120.811 302.26 119.55C303.691 118.16 304.836 116.502 305.63 114.67C306.544 112.654 307.312 110.576 307.93 108.45L309.33 103.65L289.5 55.1504H298.25L313.1 94.1504L324.62 55.1504H332.6Z" fill="#2A49F4"/>
<path d="M88.38 31.36C87.8489 31.2418 87.3113 31.155 86.77 31.1C86.0699 31.0149 85.3652 30.9748 84.66 30.98C84.18 30.98 83.66 30.98 83.2 30.98C82.2087 31.0552 81.2253 31.2124 80.26 31.45C79.98 27.45 79.16 12.94 81.44 0.12001C82.44 0.0400102 83.5 7.48125e-06 84.55 7.48125e-06C86.0399 -0.000891494 87.5288 0.0792285 89.01 0.240009V0.240009L89.63 0.37001C87.19 13.02 88.18 28.52 88.38 31.36Z" fill="#081A78"/>
<path d="M122.72 28.1508C114.45 30.3108 105.21 36.7408 101.02 40.5308L100.9 40.4008C99.571 38.0627 97.7446 36.0452 95.55 34.4908C99.83 30.6308 109.55 23.4908 119.61 20.5508C120.855 22.803 121.86 25.1793 122.61 27.6408L122.72 28.1508Z" fill="#081A78"/>
<path d="M72.62 35.3205C70.6124 36.9801 68.9827 39.0497 67.84 41.3905C67.78 41.5205 67.73 41.6405 67.68 41.7705C63.5 37.9805 54.26 31.5605 46 29.4105C46.6612 26.7538 47.6136 24.1782 48.84 21.7305C58.58 24.5205 68.1 31.3405 72.62 35.3205Z" fill="#081A78"/>
<path d="M78.25 103.63V70.8301H90.1V103.63H78.25Z" fill="#081A78"/>
<path d="M84.15 55.1C88.1817 55.1 91.45 51.8317 91.45 47.8C91.45 43.7683 88.1817 40.5 84.15 40.5C80.1183 40.5 76.85 43.7683 76.85 47.8C76.85 51.8317 80.1183 55.1 84.15 55.1Z" fill="#2A49F4"/>
</svg>
